<?xml version="1.0" encoding="UTF-8" standalone="no"?>
<svg
   xmlns:dc="http://purl.org/dc/elements/1.1/"
   xmlns:cc="http://creativecommons.org/ns#"
   xmlns:rdf="http://www.w3.org/1999/02/22-rdf-syntax-ns#"
   xmlns:svg="http://www.w3.org/2000/svg"
   xmlns="http://www.w3.org/2000/svg"
   xmlns:sodipodi="http://sodipodi.sourceforge.net/DTD/sodipodi-0.dtd"
   xmlns:inkscape="http://www.inkscape.org/namespaces/inkscape"
   id="Calque_1"
   data-name="Calque 1"
   viewBox="0 0 432 432"
   version="1.1"
   sodipodi:docname="front.svg"
   inkscape:version="0.92.3 (2405546, 2018-03-11)">
  <metadata
     id="metadata45">
    <rdf:RDF>
      <cc:Work
         rdf:about="">
        <dc:format>image/svg+xml</dc:format>
        <dc:type
           rdf:resource="http://purl.org/dc/dcmitype/StillImage" />
        <dc:title>14_100_REDO_February_2017_LoveSVG</dc:title>
      </cc:Work>
    </rdf:RDF>
  </metadata>
  <sodipodi:namedview
     pagecolor="#ffffff"
     bordercolor="#666666"
     borderopacity="1"
     objecttolerance="10"
     gridtolerance="10"
     guidetolerance="10"
     inkscape:pageopacity="0"
     inkscape:pageshadow="2"
     inkscape:window-width="1920"
     inkscape:window-height="1055"
     id="namedview43"
     showgrid="false"
     inkscape:measure-start="-111.661,390.356"
     inkscape:measure-end="-81,227.898"
     inkscape:zoom="2.0069444"
     inkscape:cx="165.92387"
     inkscape:cy="255.86159"
     inkscape:window-x="1920"
     inkscape:window-y="0"
     inkscape:window-maximized="1"
     inkscape:current-layer="text856" />
  <defs
     id="defs4">
    <inkscape:perspective
       sodipodi:type="inkscape:persp3d"
       inkscape:vp_x="-189.77293 : 379.17077 : 1"
       inkscape:vp_y="0 : 2518.3914 : 0"
       inkscape:vp_z="807.36173 : 379.17077 : 1"
       inkscape:persp3d-origin="308.7944 : 197.84659 : 1"
       id="perspective4731" />
    <style
       id="style2">.cls-1{fill:#333;}.cls-2{fill:#c1272d;}</style>
  </defs>
  <title
     id="title6">14_100_REDO_February_2017_LoveSVG</title>
  <g
     id="g4835"
     transform="translate(24.680708,42.549851)">
    <g
       aria-label="ENCADERNAÇÃO"
       transform="rotate(13.720641)"
       style="font-style:normal;font-weight:normal;font-size:36.2065239px;line-height:1.25;font-family:sans-serif;letter-spacing:0px;word-spacing:0px;fill:#000000;fill-opacity:1;stroke:none;stroke-width:0.90516311"
       id="text856">
      <path
         d="m 160.95197,23.263987 h 12.41063 v 5.727985 h -4.96779 v 5.427443 h 4.64957 v 5.445122 h -4.64957 v 6.293712 h 5.4628 v 5.727985 h -12.90564 z"
         style="font-style:normal;font-variant:normal;font-weight:normal;font-stretch:normal;font-family:Impact;-inkscape-font-specification:Impact;stroke-width:0.90516311"
         id="path3776" />
      <path
         d="m 192.63268,23.263987 v 28.622247 h -6.52354 l -3.8717,-13.011719 v 13.011719 h -6.22299 V 23.263987 h 6.22299 l 4.17224,12.887967 V 23.263987 Z"
         style="font-style:normal;font-variant:normal;font-weight:normal;font-stretch:normal;font-family:Impact;-inkscape-font-specification:Impact;stroke-width:0.90516311"
         id="path3778" />
      <path
         d="m 212.98117,35.745338 h -7.44285 v -4.985469 q 0,-2.174513 -0.2475,-2.704882 -0.22983,-0.548048 -1.04306,-0.548048 -0.91931,0 -1.16681,0.654122 -0.24751,0.654122 -0.24751,2.828635 v 13.294583 q 0,2.086118 0.24751,2.72256 0.2475,0.636443 1.11377,0.636443 0.83091,0 1.07842,-0.636443 0.26518,-0.636442 0.26518,-2.987745 v -3.58883 h 7.44285 v 1.113775 q 0,4.43742 -0.63645,6.293712 -0.61876,1.856291 -2.77559,3.25293 -2.13916,1.396638 -5.28601,1.396638 -3.27061,0 -5.39209,-1.184491 -2.12147,-1.18449 -2.81095,-3.270608 -0.68948,-2.103798 -0.68948,-6.311392 v -8.362151 q 0,-3.093819 0.21214,-4.631889 0.21215,-1.555749 1.25521,-2.987746 1.06074,-1.431996 2.91703,-2.245228 1.87397,-0.830912 4.29599,-0.830912 3.28829,0 5.42744,1.272886 2.13916,1.272885 2.81096,3.182214 0.6718,1.891649 0.6718,5.904775 z"
         style="font-style:normal;font-variant:normal;font-weight:normal;font-stretch:normal;font-family:Impact;-inkscape-font-specification:Impact;stroke-width:0.90516311"
         id="path3780" />
      <path
         d="m 228.53866,23.263987 4.26063,28.622247 h -7.61964 l -0.37125,-5.144579 h -2.66953 l -0.44197,5.144579 h -7.70803 l 3.7833,-28.622247 z m -3.94241,18.403805 q -0.56573,-4.861716 -1.13146,-12.004019 -1.13145,8.203041 -1.41431,12.004019 z"
         style="font-style:normal;font-variant:normal;font-weight:normal;font-stretch:normal;font-family:Impact;-inkscape-font-specification:Impact;stroke-width:0.90516311"
         id="path3782" />
      <path
         d="m 234.07218,23.263987 h 5.56887 q 5.39209,0 7.28373,0.495011 1.90933,0.495011 2.89936,1.626465 0.99002,1.131454 1.23752,2.528092 0.24751,1.37896 0.24751,5.445122 v 10.023974 q 0,3.854015 -0.37126,5.162259 -0.35358,1.290564 -1.25521,2.033081 -0.90162,0.724837 -2.22755,1.02538 -1.32592,0.282863 -3.99544,0.282863 h -9.38753 z m 7.44284,4.897074 V 46.98916 q 1.60879,0 1.98005,-0.636442 0.37125,-0.654122 0.37125,-3.518115 v -11.12007 q 0,-1.944686 -0.12375,-2.492734 -0.12375,-0.548048 -0.56573,-0.795554 -0.44197,-0.265184 -1.66182,-0.265184 z"
         style="font-style:normal;font-variant:normal;font-weight:normal;font-stretch:normal;font-family:Impact;-inkscape-font-specification:Impact;stroke-width:0.90516311"
         id="path3784" />
      <path
         d="m 254.08476,23.263987 h 12.41064 v 5.727985 h -4.96779 v 5.427443 h 4.64957 v 5.445122 h -4.64957 v 6.293712 h 5.4628 v 5.727985 h -12.90565 z"
         style="font-style:normal;font-variant:normal;font-weight:normal;font-stretch:normal;font-family:Impact;-inkscape-font-specification:Impact;stroke-width:0.90516311"
         id="path3786" />
      <path
         d="m 269.14724,23.263987 h 5.26833 q 5.26834,0 7.12463,0.406616 1.87397,0.406617 3.04078,2.086118 1.18449,1.661823 1.18449,5.321369 0,3.341325 -0.83091,4.490458 -0.83091,1.149133 -3.27061,1.378959 2.20987,0.548048 2.97007,1.467355 0.76019,0.919306 0.93698,1.69718 0.19447,0.760196 0.19447,4.225273 v 7.548919 h -6.91248 V 42.37495 q 0,-2.298266 -0.37125,-2.846313 -0.35358,-0.548048 -1.89165,-0.548048 v 12.905645 h -7.44285 z m 7.44285,4.897074 v 6.364428 q 1.2552,0 1.75021,-0.3359 0.51269,-0.35358 0.51269,-2.245229 v -1.573428 q 0,-1.361281 -0.49501,-1.785576 -0.47733,-0.424295 -1.76789,-0.424295 z"
         style="font-style:normal;font-variant:normal;font-weight:normal;font-stretch:normal;font-family:Impact;-inkscape-font-specification:Impact;stroke-width:0.90516311"
         id="path3788" />
      <path
         d="m 305.28306,23.263987 v 28.622247 h -6.52354 l -3.8717,-13.011719 v 13.011719 h -6.22299 V 23.263987 h 6.22299 l 4.17224,12.887967 V 23.263987 Z"
         style="font-style:normal;font-variant:normal;font-weight:normal;font-stretch:normal;font-family:Impact;-inkscape-font-specification:Impact;stroke-width:0.90516311"
         id="path3790" />
      <path
         d="m 321.10572,23.263987 4.26063,28.622247 h -7.61963 l -0.37126,-5.144579 h -2.66952 l -0.44198,5.144579 h -7.70803 l 3.7833,-28.622247 z m -3.94241,18.403805 q -0.56572,-4.861716 -1.13145,-12.004019 -1.13145,8.203041 -1.41432,12.004019 z"
         style="font-style:normal;font-variant:normal;font-weight:normal;font-stretch:normal;font-family:Impact;-inkscape-font-specification:Impact;stroke-width:0.90516311"
         id="path3792" />
      <path
         d="m 335.86766,52.46964 v 0.335901 q 0.95466,0 1.75022,0.618763 0.79555,0.636443 0.79555,1.71486 0,1.343602 -1.0961,2.315945 -1.09609,0.990022 -2.61648,0.990022 -2.75792,0 -3.51812,-2.793277 h 2.61649 q 0.24751,0.742517 0.88395,0.742517 0.53037,0 0.77787,-0.265185 0.26519,-0.265184 0.26519,-0.795553 0,-0.583406 -0.37126,-0.883949 -0.35358,-0.282863 -1.0961,-0.282863 h -0.45965 v -1.767897 q -3.0231,-0.282863 -4.72028,-1.644144 -1.67951,-1.378959 -2.17452,-3.341324 -0.47733,-1.980045 -0.47733,-5.692628 v -8.362151 q 0,-3.093819 0.21215,-4.631889 0.21215,-1.555749 1.25521,-2.987746 1.06073,-1.431996 2.91702,-2.245228 1.87398,-0.830912 4.29599,-0.830912 3.28829,0 5.42745,1.272886 2.13915,1.272885 2.81095,3.182214 0.6718,1.891649 0.6718,5.904775 v 2.722561 h -7.44284 v -4.985469 q 0,-2.174513 -0.24751,-2.704882 -0.22982,-0.548048 -1.04306,-0.548048 -0.9193,0 -1.16681,0.654122 -0.2475,0.654122 -0.2475,2.828635 v 13.294583 q 0,2.086118 0.2475,2.72256 0.24751,0.636443 1.11378,0.636443 0.83091,0 1.07841,-0.636443 0.26519,-0.636442 0.26519,-2.987745 v -3.58883 h 7.44284 v 1.113775 q 0,4.119199 -0.49501,5.922454 -0.49501,1.785575 -2.45737,3.305966 -1.94469,1.502713 -5.19762,1.697181 z"
         style="font-style:normal;font-variant:normal;font-weight:normal;font-stretch:normal;font-family:Impact;-inkscape-font-specification:Impact;stroke-width:0.90516311"
         id="path3794" />
      <path
         d="m 359.57516,23.263987 4.26063,28.622247 h -7.61963 l -0.37126,-5.144579 h -2.66953 l -0.44197,5.144579 h -7.70803 l 3.7833,-28.622247 z m -3.94241,18.403805 q -0.56573,-4.861716 -1.13145,-12.004019 -1.13146,8.203041 -1.41432,12.004019 z m 6.02853,-22.664436 q -0.81323,1.785576 -1.99772,2.492734 -1.1845,0.707159 -2.08612,0.707159 -1.25521,0 -2.70488,-0.583406 l -1.30825,-0.51269 q -1.2552,-0.51269 -1.87397,-0.51269 -1.30824,0 -2.15683,1.767897 l -2.79328,-1.856292 q 1.94469,-3.429719 4.38438,-3.429719 1.27289,0 2.7756,0.565727 l 1.0961,0.406616 q 1.37896,0.51269 1.87397,0.51269 1.46735,0 1.94468,-1.591107 z"
         style="font-style:normal;font-variant:normal;font-weight:normal;font-stretch:normal;font-family:Impact;-inkscape-font-specification:Impact;stroke-width:0.90516311"
         id="path3796" />
      <path
         d="m 382.11584,40.023648 q 0,4.313667 -0.21215,6.116922 -0.19447,1.785576 -1.27288,3.270609 -1.06074,1.485033 -2.88167,2.280587 -1.82094,0.795553 -4.24296,0.795553 -2.29826,0 -4.13687,-0.742516 -1.82094,-0.760196 -2.93471,-2.262908 -1.11378,-1.502712 -1.32592,-3.270609 -0.21215,-1.767897 -0.21215,-6.187638 v -4.897074 q 0,-4.313668 0.19447,-6.099244 0.21214,-1.803254 1.27288,-3.288288 1.07842,-1.485033 2.89935,-2.280586 1.82094,-0.795554 4.24295,-0.795554 2.29827,0 4.1192,0.760196 1.83862,0.742516 2.95239,2.245229 1.11378,1.502712 1.32592,3.270608 0.21215,1.767897 0.21215,6.187639 z M 374.673,30.618437 q 0,-1.997723 -0.22983,-2.545771 -0.21215,-0.565727 -0.90163,-0.565727 -0.5834,0 -0.90162,0.459653 -0.30055,0.441974 -0.30055,2.651845 v 13.365299 q 0,2.492734 0.19447,3.07614 0.21215,0.583406 0.95467,0.583406 0.76019,0 0.97234,-0.6718 0.21215,-0.671801 0.21215,-3.199893 z"
         style="font-style:normal;font-variant:normal;font-weight:normal;font-stretch:normal;font-family:Impact;-inkscape-font-specification:Impact;stroke-width:0.90516311"
         id="path3798" />
    </g>
    <path
       transform="matrix(0.01438456,0.67946947,-1.6348787,0.03461084,350.23885,327.00373)"
       d="M -130.88135,79.627121 -213.25423,205.93221 -339.55932,123.55933 -257.18644,-2.7457596 Z"
       inkscape:randomized="0"
       inkscape:rounded="0"
       inkscape:flatsided="true"
       sodipodi:arg2="0.57790194"
       sodipodi:arg1="-0.20749623"
       sodipodi:r2="75.396065"
       sodipodi:r1="106.62614"
       sodipodi:cy="101.59322"
       sodipodi:cx="-235.22034"
       sodipodi:sides="4"
       id="path868"
       style="fill:#d35f5f;stroke:#ffffff;stroke-width:1.75772274;stroke-miterlimit:4;stroke-dasharray:none"
       sodipodi:type="star" />
    <g
       aria-label="Japonesa"
       transform="rotate(11.761083)"
       style="font-style:normal;font-weight:normal;font-size:56.49160004px;line-height:1.25;font-family:sans-serif;letter-spacing:0px;word-spacing:0px;fill:#000000;fill-opacity:1;stroke:none;stroke-width:1.41228998"
       id="text864">
      <path
         d="m 73.830322,243.01254 v -4.99267 h 1.572276 q 0.22067,1.65503 2.317038,2.17912 0.57926,0.13792 1.075768,0.13792 0.524092,0 1.0206,-0.11033 0.524092,-0.11034 0.937849,-0.35859 0.993016,-0.57926 0.993016,-1.57228 v -29.48707 h 4.992666 v 29.81808 q 0,2.86871 -2.427373,4.55132 -2.151536,1.48953 -5.406423,1.48953 -3.227303,0 -5.075417,-1.65503 z"
         style="font-style:normal;font-variant:normal;font-weight:normal;font-stretch:normal;font-family:Uroob;-inkscape-font-specification:Uroob;stroke-width:1.41228998"
         id="path3759" />
      <path
         d="m 103.59323,223.53838 q 0,-2.31704 -2.23429,-2.31704 h -5.020247 q -0.827513,0 -1.296438,0.5241 -0.44134,0.4965 -0.468924,1.29643 h -4.744412 q 0.05517,-2.51012 1.572276,-4.19273 1.59986,-1.79295 4.054817,-1.79295 h 7.364868 q 2.37221,0 3.9169,1.76536 1.48953,1.68262 1.48953,4.10999 v 21.07401 h -4.6065 v -1.07576 q -1.48952,1.15852 -2.92388,1.15852 h -4.523739 q -2.510125,0 -4.468574,-1.5447 -2.123952,-1.68261 -2.123952,-4.0824 v -5.24092 q 0,-2.42737 2.123952,-4.10998 1.986033,-1.57228 4.468574,-1.57228 h 5.351259 q 1.10335,0 2.06878,0.60685 z m -0.0828,14.01257 v -3.42039 q 0,-1.04819 -0.60684,-1.76536 -0.57926,-0.74477 -1.7102,-0.74477 h -4.689244 q -1.158519,0 -1.682611,0.74477 -0.524092,0.71717 -0.524092,1.76536 v 3.42039 q 0,1.04818 0.524092,1.79294 0.524092,0.71718 1.682611,0.71718 h 4.689244 q 1.13094,0 1.7102,-0.71718 0.60684,-0.74476 0.60684,-1.79294 z"
         style="font-style:normal;font-variant:normal;font-weight:normal;font-stretch:normal;font-family:Uroob;-inkscape-font-specification:Uroob;stroke-width:1.41228998"
         id="path3761" />
      <path
         d="m 115.34392,218.46297 q 1.79295,-1.29644 3.99965,-1.29644 h 1.93087 q 3.50314,0 5.59951,2.01361 2.09637,1.98604 2.09637,5.57193 v 11.03352 q 0,5.76501 -3.88932,7.55795 -1.3516,0.60685 -3.25489,0.60685 h -3.03421 q -1.79295,0 -3.03422,-1.35161 v 13.48847 h -4.77199 l 0.0276,-38.92072 h 4.33065 z m 8.90957,16.96403 v -10.01292 q 0,-2.15154 -0.46893,-2.86871 -0.85509,-1.32403 -2.84113,-1.32403 h -2.3722 q -0.8551,0 -1.54469,0.44135 -1.26886,0.77234 -1.26886,1.59985 v 13.87465 q 0,0.82751 0.71718,1.51711 1.29644,1.21369 2.09637,1.21369 h 2.3722 q 2.75838,0 3.17214,-2.7308 0.13792,-0.79993 0.13792,-1.71019 z"
         style="font-style:normal;font-variant:normal;font-weight:normal;font-stretch:normal;font-family:Uroob;-inkscape-font-specification:Uroob;stroke-width:1.41228998"
         id="path3763" />
      <path
         d="m 148.30655,238.21296 q 0,2.3722 -2.0412,4.0824 -1.90328,1.57228 -4.38582,1.57228 h -3.55831 q -2.51012,0 -4.46857,-1.5447 -2.12395,-1.68261 -2.12395,-4.10998 v -15.50209 q 0,-2.42737 2.12395,-4.10999 1.98603,-1.57227 4.46857,-1.57227 h 3.55831 q 2.42737,0 4.38582,1.59986 2.0412,1.68261 2.0412,4.0824 z m -4.71682,-0.91027 v -13.68156 q 0,-1.04818 -0.60685,-1.76536 -0.57926,-0.74476 -1.71019,-0.74476 h -2.62046 q -1.15852,0 -1.68261,0.74476 -0.5241,0.71718 -0.5241,1.76536 v 13.68156 q 0,1.04819 0.5241,1.79295 0.52409,0.71718 1.68261,0.71718 h 2.62046 q 1.13093,0 1.71019,-0.71718 0.60685,-0.74476 0.60685,-1.79295 z"
         style="font-style:normal;font-variant:normal;font-weight:normal;font-stretch:normal;font-family:Uroob;-inkscape-font-specification:Uroob;stroke-width:1.41228998"
         id="path3765" />
      <path
         d="m 155.23008,218.71122 q 1.59986,-1.59986 3.22731,-1.59986 h 4.68924 q 2.39979,0 4.10999,1.62744 1.76536,1.62745 1.76536,4.05482 v 21.18435 h -4.71683 v -20.27408 q 0,-1.04819 -0.60684,-1.76537 -0.57926,-0.74476 -1.7102,-0.74476 h -4.02723 q -1.62744,0 -2.06878,2.01362 -0.13792,0.55167 -0.13792,1.04818 v 19.72241 h -4.71683 l -0.0276,-26.86661 h 4.22032 z"
         style="font-style:normal;font-variant:normal;font-weight:normal;font-stretch:normal;font-family:Uroob;-inkscape-font-specification:Uroob;stroke-width:1.41228998"
         id="path3767" />
      <path
         d="m 189.62707,237.82679 q -0.0828,4.16515 -3.2273,5.68226 -1.04819,0.4965 -2.39979,0.4965 h -6.53736 q -2.45496,0 -4.0824,-1.79294 -1.59986,-1.73778 -1.59986,-4.22032 v -15.06075 q 0,-2.45496 1.43436,-4.16515 1.57227,-1.82053 3.97206,-1.82053 h 7.00628 q 2.45496,0 3.97207,1.95845 1.40677,1.79294 1.40677,4.30307 v 3.58589 q 0,2.42737 -1.29643,4.0824 -1.37919,1.79295 -3.80657,1.79295 h -8.05446 v 4.99266 q 0,2.20671 2.23428,2.20671 h 4.19274 q 0.93785,0 1.48952,-0.5241 0.57926,-0.55167 0.55168,-1.5171 z m -10.97835,-16.60545 q -2.23428,0 -2.23428,2.31704 v 5.04784 h 6.04085 q 1.04818,0 1.76536,-0.57926 0.74476,-0.60685 0.74476,-1.73778 v -2.84113 q 0,-1.15852 -0.74476,-1.68261 -0.71718,-0.5241 -1.76536,-0.5241 z"
         style="font-style:normal;font-variant:normal;font-weight:normal;font-stretch:normal;font-family:Uroob;-inkscape-font-specification:Uroob;stroke-width:1.41228998"
         id="path3769" />
      <path
         d="m 204.32923,222.95912 q 0.0552,-1.54469 -1.90328,-1.54469 h -3.44798 q -2.3722,0 -2.15153,3.2273 0.0552,0.79993 0.0552,1.48953 0,2.06878 2.09637,2.06878 h 4.82717 q 2.48254,0 4.02723,1.79295 1.51711,1.73778 1.51711,4.19274 v 3.69622 q 0,2.53771 -1.62745,4.30307 -1.68261,1.84812 -4.19273,1.84812 h -6.06844 q -2.70321,0 -4.27548,-1.76536 -1.48953,-1.7102 -1.48953,-4.41341 h 4.74441 q -0.0552,0.96543 0.46893,1.37919 0.55167,0.38617 1.43436,0.38617 h 3.99964 q 2.09637,0 2.09637,-2.06878 v -2.75838 q 0,-2.15154 -2.09637,-2.15154 h -4.55132 q -2.51013,0 -4.16515,-1.54469 -1.65503,-1.57228 -1.65503,-4.0824 v -4.02723 q 0,-2.48254 1.48952,-4.19274 1.62745,-1.82053 4.05482,-1.82053 h 5.93052 q 2.5377,0 4.13756,1.73778 1.48953,1.65503 1.48953,4.2479 z"
         style="font-style:normal;font-variant:normal;font-weight:normal;font-stretch:normal;font-family:Uroob;-inkscape-font-specification:Uroob;stroke-width:1.41228998"
         id="path3771" />
      <path
         d="m 229.0443,223.53838 q 0,-2.31704 -2.23428,-2.31704 h -5.02025 q -0.82752,0 -1.29644,0.5241 -0.44134,0.4965 -0.46892,1.29643 h -4.74442 q 0.0552,-2.51012 1.57228,-4.19273 1.59986,-1.79295 4.05482,-1.79295 h 7.36487 q 2.3722,0 3.9169,1.76536 1.48952,1.68262 1.48952,4.10999 v 21.07401 h -4.60649 v -1.07576 q -1.48953,1.15852 -2.92388,1.15852 h -4.52374 q -2.51013,0 -4.46858,-1.5447 -2.12395,-1.68261 -2.12395,-4.0824 v -5.24092 q 0,-2.42737 2.12395,-4.10998 1.98603,-1.57228 4.46858,-1.57228 h 5.35125 q 1.10335,0 2.06878,0.60685 z m -0.0828,14.01257 v -3.42039 q 0,-1.04819 -0.60684,-1.76536 -0.57926,-0.74477 -1.7102,-0.74477 h -4.68924 q -1.15852,0 -1.68261,0.74477 -0.52409,0.71717 -0.52409,1.76536 v 3.42039 q 0,1.04818 0.52409,1.79294 0.52409,0.71718 1.68261,0.71718 h 4.68924 q 1.13094,0 1.7102,-0.71718 0.60684,-0.74476 0.60684,-1.79294 z"
         style="font-style:normal;font-variant:normal;font-weight:normal;font-stretch:normal;font-family:Uroob;-inkscape-font-specification:Uroob;stroke-width:1.41228998"
         id="path3773" />
    </g>
    <g
       id="g988">
      <g
         id="g896">
        <ellipse
           ry="2.7998676"
           rx="6.2219281"
           cy="185.30055"
           cx="37.953762"
           id="path870"
           style="fill:#ffffff;stroke:#000000;stroke-width:1.75748026;stroke-miterlimit:4;stroke-dasharray:none" />
        <ellipse
           style="fill:#ffffff;stroke:#000000;stroke-width:1.75748026;stroke-miterlimit:4;stroke-dasharray:none"
           id="ellipse874"
           cx="61.953762"
           cy="191.30055"
           rx="6.2219281"
           ry="2.7998676" />
        <ellipse
           ry="2.7998676"
           rx="6.2219281"
           cy="197.30055"
           cx="87.953766"
           id="ellipse876"
           style="fill:#ffffff;stroke:#000000;stroke-width:1.75748026;stroke-miterlimit:4;stroke-dasharray:none" />
        <ellipse
           style="fill:#ffffff;stroke:#000000;stroke-width:1.75748026;stroke-miterlimit:4;stroke-dasharray:none"
           id="ellipse878"
           cx="113.95377"
           cy="203.30055"
           rx="6.2219281"
           ry="2.7998676" />
        <ellipse
           ry="2.7998676"
           rx="6.2219281"
           cy="209.30055"
           cx="139.95377"
           id="ellipse880"
           style="fill:#ffffff;stroke:#000000;stroke-width:1.75748026;stroke-miterlimit:4;stroke-dasharray:none" />
        <ellipse
           style="fill:#ffffff;stroke:#000000;stroke-width:1.75748026;stroke-miterlimit:4;stroke-dasharray:none"
           id="ellipse882"
           cx="165.95377"
           cy="215.30055"
           rx="6.2219281"
           ry="2.7998676" />
        <ellipse
           ry="2.7998676"
           rx="6.2219281"
           cy="227.30055"
           cx="211.95377"
           id="ellipse884"
           style="fill:#ffffff;stroke:#000000;stroke-width:1.75748026;stroke-miterlimit:4;stroke-dasharray:none" />
        <ellipse
           ry="2.7998676"
           rx="6.2219281"
           cy="221.30055"
           cx="187.95377"
           id="ellipse886"
           style="fill:#ffffff;stroke:#000000;stroke-width:1.75748026;stroke-miterlimit:4;stroke-dasharray:none" />
      </g>
      <g
         id="g914"
         transform="translate(12,-10)">
        <ellipse
           style="fill:#ffffff;stroke:#000000;stroke-width:1.75748026;stroke-miterlimit:4;stroke-dasharray:none"
           id="ellipse898"
           cx="37.953762"
           cy="185.30055"
           rx="6.2219281"
           ry="2.7998676" />
        <ellipse
           ry="2.7998676"
           rx="6.2219281"
           cy="191.30055"
           cx="61.953762"
           id="ellipse900"
           style="fill:#ffffff;stroke:#000000;stroke-width:1.75748026;stroke-miterlimit:4;stroke-dasharray:none" />
        <ellipse
           style="fill:#ffffff;stroke:#000000;stroke-width:1.75748026;stroke-miterlimit:4;stroke-dasharray:none"
           id="ellipse902"
           cx="87.953766"
           cy="197.30055"
           rx="6.2219281"
           ry="2.7998676" />
        <ellipse
           ry="2.7998676"
           rx="6.2219281"
           cy="203.30055"
           cx="113.95377"
           id="ellipse904"
           style="fill:#ffffff;stroke:#000000;stroke-width:1.75748026;stroke-miterlimit:4;stroke-dasharray:none" />
        <ellipse
           style="fill:#ffffff;stroke:#000000;stroke-width:1.75748026;stroke-miterlimit:4;stroke-dasharray:none"
           id="ellipse906"
           cx="139.95377"
           cy="209.30055"
           rx="6.2219281"
           ry="2.7998676" />
        <ellipse
           ry="2.7998676"
           rx="6.2219281"
           cy="215.30055"
           cx="165.95377"
           id="ellipse908"
           style="fill:#ffffff;stroke:#000000;stroke-width:1.75748026;stroke-miterlimit:4;stroke-dasharray:none" />
        <ellipse
           style="fill:#ffffff;stroke:#000000;stroke-width:1.75748026;stroke-miterlimit:4;stroke-dasharray:none"
           id="ellipse910"
           cx="211.95377"
           cy="227.30055"
           rx="6.2219281"
           ry="2.7998676" />
        <ellipse
           style="fill:#ffffff;stroke:#000000;stroke-width:1.75748026;stroke-miterlimit:4;stroke-dasharray:none"
           id="ellipse912"
           cx="187.95377"
           cy="221.30055"
           rx="6.2219281"
           ry="2.7998676" />
      </g>
      <path
         style="fill:none;stroke:#000000;stroke-width:1px;stroke-linecap:butt;stroke-linejoin:miter;stroke-opacity:1"
         d="m 37.331569,184.98945 12.754953,-9.95508"
         id="path916"
         inkscape:connector-curvature="0" />
      <path
         style="fill:none;stroke:#000000;stroke-width:1px;stroke-linecap:butt;stroke-linejoin:miter;stroke-opacity:1"
         d="M 61.285992,190.90028 74.974234,180.6341"
         id="path918"
         inkscape:connector-curvature="0" />
      <path
         style="fill:none;stroke:#000000;stroke-width:1px;stroke-linecap:butt;stroke-linejoin:miter;stroke-opacity:1"
         d="m 87.729187,196.81112 12.443853,-9.95509"
         id="path920"
         inkscape:connector-curvature="0" />
      <path
         style="fill:none;stroke:#000000;stroke-width:1px;stroke-linecap:butt;stroke-linejoin:miter;stroke-opacity:1"
         d="m 114.79457,203.65524 11.51057,-10.88838"
         id="path922"
         inkscape:connector-curvature="0" />
      <path
         style="fill:none;stroke:#000000;stroke-width:1px;stroke-linecap:butt;stroke-linejoin:miter;stroke-opacity:1"
         d="m 139.68229,208.94388 12.13276,-9.95509"
         id="path924"
         inkscape:connector-curvature="0" />
      <path
         style="fill:none;stroke:#000000;stroke-width:1px;stroke-linecap:butt;stroke-linejoin:miter;stroke-opacity:1"
         d="m 166.12548,214.85471 11.19947,-9.3329"
         id="path926"
         inkscape:connector-curvature="0" />
      <path
         style="fill:none;stroke:#000000;stroke-width:1px;stroke-linecap:butt;stroke-linejoin:miter;stroke-opacity:1"
         d="m 188.21333,221.69883 12.44385,-10.88838"
         id="path928"
         inkscape:connector-curvature="0" />
      <path
         style="fill:none;stroke:#000000;stroke-width:1px;stroke-linecap:butt;stroke-linejoin:miter;stroke-opacity:1"
         d="m 211.23446,226.67637 13.06605,-9.33289"
         id="path930"
         inkscape:connector-curvature="0" />
      <path
         style="fill:none;stroke:#000000;stroke-width:1px;stroke-linecap:butt;stroke-linejoin:miter;stroke-opacity:1"
         d="m 50.086522,175.03437 11.19947,15.86591 38.887048,-4.04425 14.62153,16.79921"
         id="path932"
         inkscape:connector-curvature="0" />
      <path
         style="fill:none;stroke:#000000;stroke-width:1px;stroke-linecap:butt;stroke-linejoin:miter;stroke-opacity:1"
         d="m 126.30514,192.76686 13.37715,16.17702"
         id="path934"
         inkscape:connector-curvature="0" />
      <path
         style="fill:none;stroke:#000000;stroke-width:1px;stroke-linecap:butt;stroke-linejoin:miter;stroke-opacity:1"
         d="m 151.81505,198.98879 14.31043,15.86592"
         id="path936"
         inkscape:connector-curvature="0" />
      <path
         style="fill:none;stroke:#000000;stroke-width:1px;stroke-linecap:butt;stroke-linejoin:miter;stroke-opacity:1"
         d="m 177.32495,205.52181 10.88838,16.17702"
         id="path938"
         inkscape:connector-curvature="0" />
      <path
         style="fill:none;stroke:#000000;stroke-width:1px;stroke-linecap:butt;stroke-linejoin:miter;stroke-opacity:1"
         d="m 200.65718,210.81045 10.57728,15.86592"
         id="path940"
         inkscape:connector-curvature="0" />
      <path
         style="fill:none;stroke:#000000;stroke-width:1px;stroke-linecap:butt;stroke-linejoin:miter;stroke-opacity:1"
         d="M 126.30514,192.76686 87.729187,196.81112 74.974234,180.6341 37.331569,184.98945"
         id="path942"
         inkscape:connector-curvature="0" />
      <path
         style="fill:none;stroke:#000000;stroke-width:1px;stroke-linecap:butt;stroke-linejoin:miter;stroke-opacity:1"
         d="m 114.79457,203.65524 37.02048,-4.66645"
         id="path944"
         inkscape:connector-curvature="0" />
      <path
         style="fill:none;stroke:#000000;stroke-width:1px;stroke-linecap:butt;stroke-linejoin:miter;stroke-opacity:1"
         d="m 139.68229,208.94388 37.64266,-3.42207"
         id="path946"
         inkscape:connector-curvature="0" />
      <path
         style="fill:none;stroke:#000000;stroke-width:1px;stroke-linecap:butt;stroke-linejoin:miter;stroke-opacity:1"
         d="m 166.12548,214.85471 34.5317,-4.04426"
         id="path948"
         inkscape:connector-curvature="0" />
      <path
         style="fill:none;stroke:#000000;stroke-width:1px;stroke-linecap:butt;stroke-linejoin:miter;stroke-opacity:1"
         d="m 188.21333,221.69883 36.08718,-4.35535"
         id="path950"
         inkscape:connector-curvature="0" />
    </g>
    <path
       inkscape:connector-curvature="0"
       id="path4719"
       d="m 218.17549,240.82981 v 18.27355 L 14.618083,208.69618 10.497103,189.23147"
       style="fill:#a02c2c;stroke:#ffffff;stroke-width:1px;stroke-linecap:butt;stroke-linejoin:miter;stroke-opacity:1" />
    <path
       inkscape:connector-curvature="0"
       id="path4723"
       d="m 218.50586,257.44964 126.14399,-83.50031 2.1176,-19.65404"
       style="fill:none;stroke:#000000;stroke-width:0.90566611px;stroke-linecap:butt;stroke-linejoin:miter;stroke-opacity:1" />
    <path
       inkscape:connector-curvature="0"
       id="path4725"
       d="M 218.75848,247.16611 345.9138,161.27525"
       style="fill:none;stroke:#000000;stroke-width:0.9691819px;stroke-linecap:butt;stroke-linejoin:miter;stroke-opacity:1" />
    <path
       style="fill:none;stroke:#000000;stroke-width:0.96156621px;stroke-linecap:butt;stroke-linejoin:miter;stroke-opacity:1"
       d="m 218.75615,252.63485 126.5929,-84.92193"
       id="path4727"
       inkscape:connector-curvature="0" />
  </g>
</svg>
